<?xml version="1.0" encoding="UTF-8"?>
<svg viewBox="0 0 598.4024 493.24136" xmlns="http://www.w3.org/2000/svg">
 <g transform="matrix(5.3905 0 0 5.3905 -2280.4 -2021.9)" stroke="#000" stroke-linejoin="round" stroke-width=".3">
  <path d="m507.59 375.25-14.875 30.719-33.5 1.3125-14.75-31.812-9.3438 35.531s2.873 3.6374 5.0625 6.3125l-10.094 13.156 3.4375 16.969 33.281 13.75 4.5312 5.25 10.031-0.90625 2.2188-6.125-0.375 1.7812 33.969-14 4.0938-14.656-10.219-17.844 4.2812-3.6875-7.75-35.75z" fill="#9c82d7"/>
  <path d="m441.5 409.84 3.8749-26.355 10.029 24.751z" fill="#9944c3"/>
  <path d="m496.89 405.72 8.8897-20.626 4.1028 23.376z" fill="#9944c3"/>
  <path d="m480.48 434.59c0-1.1459 4.7867-11.688 4.7867-11.688l13.904-4.3543 9.3455 7.7919-9.3455 8.4794z" fill="#fcfcc9"/>
  <path d="m467.71 433.91-6.1544-11-11.169-3.2084-9.8014 6.646 9.5734 9.1669z" fill="#fcfcc9"/>
  <path d="m493.94 420.19-2.5 0.78125 4.5312 12.469-2.0312-13.25z"/>
  <path d="m454.84 420.97-2.4062 11.781 5.9062-10.781-3.5-1z"/>
  <path d="m490.16 406.06-4.9375 0.1875-7.0312 7.25-9.125-6.5938-6.3438 0.25c5.5797 4.894 15.469 13.469 15.469 13.469l11.969-14.562z" fill="#009b00"/>
  <path d="m460.19 453.16 7.522 3.4377 6.8382-3.4377-0.22792-5.5001 0.22792 5.5001 5.4706 3.4377 6.8382-7.3336" fill="none"/>
  <path d="m474.32 447.66-7.0661-5.9586 12.993-0.91684z" fill="#ffd5d5"/>
  <path d="m488.68 441.47 39.206-1.8334" fill="none"/>
  <path d="m487.31 444.91 42.169-0.91684" fill="none"/>
  <path d="m487.54 449.03 46.5 0.91685" fill="none"/>
  <path d="m461.1 441.24-38.066 2.2917" fill="none"/>
  <path d="m459.73 445.37-34.875 5.0418" fill="none"/>
  <path d="m461.1 448.8-34.647 10.084" fill="none"/>
 </g>
</svg>
