<?xml version='1.0' encoding='utf-8'?>
<svg xmlns="http://www.w3.org/2000/svg" version="1.1" x="0px" y="0px" viewBox="0 0 831.8 886.3" style="enable-background:new 0 0 831.8 886.3;"> <style type="text/css"> .st0{fill:#FDFEFC;} .st1{fill:#24053A;} .st2{fill:#24063A;} .st3{fill:#FCD7E4;} .st4{fill:#FDFDFC;} .st5{fill:#240639;} .st6{fill:#FBFBFA;} .st7{fill:#261435;} </style> <g id="Ebene_1"> <path class="st0" d="M785.1,662.7c-4.8-4.3-9.6-8.7-14.5-13c-34.9-30.4-71.9-57.8-112.9-79.5c-42.5-22.6-85.8-42.7-133.9-50.7 c-14.5-2.4-29-4-43.8-2.7c-7.3,0.7-14.6,1.9-20.8,6.3c-12.5,8.9-24.2,18.8-35.6,29c-2.3,2.1-3.3,4.4-3.3,7.4 c0.1,8.8,0.2,17.7,0.1,26.5c0,2.7,0.9,3.9,3.5,4.2c4.9,0.6,9.2,2.8,13.4,5.2c3.3,1.9,4.4,4.1,2.6,7.7c-1.4,2.7-3.1,5.1-4.9,7.5 c-0.9,1.2-2.1,2.5-0.1,3.7c11.3,6.9,22.6,13.4,36.8,11.7c9.4-1.2,18-4.7,26.8-7.8c1.7-0.6,3.7-1.8,5.2-0.3c1.7,1.7,0.3,3.7-0.5,5.6 c-0.3,0.8-0.7,1.5-1.1,2.2c-8.9,14.9-22.4,22.6-39.4,23.8c-20.4,1.5-31.6-5.9-38.9-24.9c-1.1-2.8-2.1-4.4-5.2-3.7 c-0.9,0.2-1.9,0.2-2.9,0.2c-1,0-1.9,0-2.9-0.2c-3-0.7-4.1,0.9-5.2,3.7c-7.3,19-18.5,26.3-38.9,24.9c-17-1.2-30.4-8.9-39.4-23.8 c-0.4-0.7-0.8-1.5-1.1-2.2c-0.7-1.8-2.1-3.9-0.5-5.6c1.4-1.4,3.4-0.3,5.2,0.3c8.8,3.1,17.4,6.6,26.8,7.8 c14.1,1.8,25.5-4.8,36.8-11.7c2-1.2,0.8-2.6-0.1-3.7c-1.9-2.4-3.6-4.8-4.9-7.5c-1.9-3.6-0.8-5.8,2.6-7.7c4.2-2.4,8.5-4.6,13.4-5.2 c2.7-0.3,3.6-1.5,3.5-4.2c-0.1-8.8,0-17.7,0.1-26.5c0-3.1-1-5.4-3.3-7.4c-11.4-10.3-23.1-20.1-35.6-29c-6.2-4.4-13.5-5.6-20.8-6.3 c-14.7-1.4-29.2,0.3-43.8,2.7c-48,7.9-91.4,28.1-133.9,50.7c-41,21.8-78,49.1-112.9,79.5c-4.9,4.3-9.7,8.7-14.5,13 c-1.5,1.9-1.7,3.6-0.1,5.7c3,4.1,4,9.8,9.3,12.2c-1,2.4,1,3.7,2.2,5.1c18.2,20.9,39.1,38.9,60.9,56c28.1,21.9,59,39.2,89.6,57.2 c23.3,13.7,46.1,28,66.3,46.1c9.5,8.5,18.9,17.3,26.5,27.8c1.7,2.4,3.3,5.1,6.5,6c1,1.8,2.3,2.8,4.6,3c25.8,2.3,51.7,3.2,77.5,4.3 c8.6,0.4,17.3,0.4,25.9,0.3c8.6,0.1,17.2,0.1,25.9-0.3c25.9-1.1,51.7-2,77.5-4.3c2.4-0.2,3.6-1.2,4.6-3c3.2-0.9,4.7-3.6,6.5-6 c7.6-10.5,17-19.3,26.5-27.8c20.2-18.1,43.1-32.4,66.3-46.1c30.5-18,61.5-35.3,89.6-57.2c21.9-17,42.7-35,60.9-56 c1.2-1.4,3.2-2.6,2.2-5.1c5.3-2.4,6.3-8,9.3-12.2C786.8,666.3,786.6,664.6,785.1,662.7z"/> <path class="st1" d="M787.4,457c-6.8-38.8-15.8-76.9-29.2-114c-6.8-18.8-14.1-37.3-17.5-57.2c-4.6-27.1-9.1-54.2-14.8-81 c-11-51.8-23.6-103.2-40.4-153.4c-4.2-12.5-7.8-25.2-14-36.9c-6.2-11.7-16.9-16.4-29.7-13.8c-9.6,1.9-16.9,7.7-23.3,14.6 c-11.5,12.5-21.9,25.9-31.7,39.8c-27.9,39.7-50.9,82-68.4,127.3c-1.6,4.1-3.4,4.7-7.2,3.8c-20-4.7-40.3-7.1-60.8-8.1 c-11.5-0.6-23-1-34.5-1.1c-11.5,0.1-23,0.5-34.5,1.1c-20.5,1-40.8,3.4-60.8,8.1c-3.8,0.9-5.7,0.3-7.2-3.8 C295.9,137.2,273,94.8,245,55.2c-9.8-13.9-20.2-27.3-31.7-39.8C206.9,8.4,199.7,2.6,190,0.7c-12.8-2.6-23.6,2.1-29.7,13.8 c-6.2,11.7-9.8,24.4-14,36.9c-16.9,50.2-29.5,101.6-40.4,153.4c-5.7,26.9-10.2,54-14.8,81c-3.4,19.8-10.8,38.4-17.5,57.2 C60.1,380,51.2,418.2,44.4,457c-8.5,48.2-10.3,96.6-8.3,145.3c0.8,19,2.3,37.9,7.6,56.3c0.5,1.6-0.3,4.5,3,4.1 c4.1-0.7,6.5-3.9,9.3-6.3c24.3-20.8,48.9-41.3,75.7-58.9c39.9-26.1,82.1-47.6,127-63.7c21.2-7.6,43.2-12.4,65.6-15 c9.8-1.1,19.7-0.8,29.4-0.1c7.8,0.6,14.8,3.3,21.1,8.1c9.9,7.6,19.6,15.5,28.9,23.8c4.4,3.9,6.4,8.5,6.3,14.5 c0,6.5-1.2,12.9-1.2,19.4c0,2.5-1.2,4-3.7,4.5c-4.3,0.9-8.2,2.7-11.8,5.2c-4.1,2.8-4.7,5.2-2.8,9.8c0.3,0.8,0.7,1.5,1.1,2.2 c3.8,6.9,3.7,6.8-3,10.8c-13.3,7.8-27.1,9.7-41.7,4.2c-4.2-1.6-8.5-2.9-12.8-4.3c-2.4-0.8-5-1.4-7.1,0.7c-2.2,2.2-0.8,4.7,0.2,7 c5.3,11.9,15.1,18.8,26.8,23.3c7.7,3,15.8,4.1,24.1,3.2c14.8-1.7,24.8-9.7,30.3-23.5c1-2.6,1.9-5.5,5.8-5.1 c0.5,0.1,1.1,0.1,1.5,0.3c0.5-0.1,1-0.2,1.5-0.3c3.8-0.4,4.7,2.5,5.8,5.1c5.5,13.8,15.5,21.8,30.3,23.5c8.2,0.9,16.4-0.2,24.1-3.2 c11.7-4.5,21.5-11.4,26.8-23.3c1-2.3,2.3-4.8,0.2-7c-2-2.1-4.7-1.5-7.1-0.7c-4.3,1.4-8.6,2.7-12.8,4.3c-14.6,5.5-28.4,3.6-41.7-4.2 c-6.7-3.9-6.8-3.8-3-10.8c0.4-0.7,0.8-1.5,1.1-2.2c2-4.6,1.4-7-2.8-9.8c-3.6-2.5-7.6-4.2-11.8-5.2c-2.5-0.6-3.7-2-3.7-4.5 c0-6.5-1.1-12.9-1.2-19.4c0-6,1.9-10.6,6.3-14.5c9.4-8.3,19-16.2,28.9-23.8c6.3-4.8,13.4-7.5,21.1-8.1c9.8-0.7,19.7-1,29.4,0.1 c22.4,2.5,44.4,7.3,65.6,15c44.9,16.1,87.1,37.5,127,63.7c26.8,17.6,51.3,38.1,75.7,58.9c2.9,2.4,5.3,5.7,9.3,6.3 c3.3,0.3,2.6-2.6,3-4.1c5.3-18.4,6.8-37.3,7.6-56.3C797.7,553.6,795.9,505.1,787.4,457z"/> <g> <path class="st2" d="M523.9,878.7c13.8-19.9,31.4-35.9,50.7-50.2c28.1-20.9,59.1-37.2,88.9-55.3c40.4-24.6,77.6-53.4,109.4-88.6 c1.1-1.2,2-2.6,3-3.9c2-0.7,3.1,0.6,4.3,1.8c15.1,14.6,30.5,28.9,43.9,45.1c9.3,11.3,11.5,10.8-1.1,23.5c-14,14-31.1,24-47.7,34.5 c-54.8,34.9-114.4,59.1-176.5,77.5c-19,5.6-38.2,10.6-57.6,14.5c-4.9,1-9.9,1.5-14.8,2.2C525.3,879.9,524.4,879.8,523.9,878.7z"/> <path class="st3" d="M687,261.6c0.2,4,0.2,8,0.6,12c0.4,3.9-1.1,3.9-3.8,2.2c-12.1-7.3-24.2-14.6-36.5-21.7 c-33.6-19.3-67.2-38.7-102.4-55c-2.9-1.3-3.3-2.6-2-5.3c22.9-50.9,52.4-96.9,97.2-131.5c2.4-1.8,4.7-3.7,7.1-5.6 c2-1.5,3.3-1.7,4.2,1.3c4.8,16.4,8.7,33.1,12.5,49.8c4.9,21.6,9,43.3,12.7,65.1C681.3,202.3,686.1,231.7,687,261.6z"/> <path class="st4" d="M543.6,476.8c-32.5,0.8-60.7-21.7-67.3-56.5c-7.7-40.5,19.3-82.7,59.3-92.7c34.2-8.5,68.8,10.2,80.9,43.7 c16,44.6-13.4,95.7-60,104.4C552,476.5,547.6,476.9,543.6,476.8z"/> <path class="st5" d="M584.3,399.9c-0.5,22.6-17.4,38.8-39.9,38.2c-21.5-0.6-36.8-18-36.2-41.3c0.5-20.8,18.1-36.8,39.7-36.2 C568,361.1,584.8,379.2,584.3,399.9z"/> <path class="st6" d="M548.6,384.8c-0.1,6.8-5.3,12.2-11.9,12.1c-6.9,0-12.5-6-12.3-13.1c0.2-6.2,6.1-11.4,12.9-11.4 C543.1,372.4,548.7,378.5,548.6,384.8z"/> <path class="st7" d="M762,676.6c-10-5.6-20.1-11.2-30.1-16.8c-30.3-17-61.7-31.5-93.6-45C610,602.8,581,592.2,551.3,584 c-26-7.2-52.2-13.2-78.7-18.5c-1.3-0.3-2.6-0.5-3.9-0.9c-2-0.5-3-1.8-3-4c0-2.3,1.6-2.7,3.3-3c7.6-1.7,15,0.1,22.2,1.8 c19.1,4.4,38,9.4,57,14.1c21.3,5.3,42,12.5,62.5,20.1c37.8,14,74.4,30.8,109.9,50c13.3,7.2,26.5,14.6,39,23.3 C763.3,669.5,764.9,672.2,762,676.6z"/> </g> <g> <path class="st2" d="M307.8,878.7c-13.8-19.9-31.4-35.9-50.7-50.2c-28.1-20.9-59.1-37.2-88.9-55.3 c-40.4-24.6-77.6-53.4-109.4-88.6c-1.1-1.2-2-2.6-3-3.9c-2-0.7-3.1,0.6-4.3,1.8C36.5,697,21.1,711.3,7.7,727.5 c-9.3,11.3-11.5,10.8,1.1,23.5c14,14,31.1,24,47.7,34.5c54.8,34.9,114.4,59.1,176.5,77.5c19,5.6,38.2,10.6,57.6,14.5 c4.9,1,9.9,1.5,14.8,2.2C306.5,879.9,307.3,879.8,307.8,878.7z"/> <path class="st3" d="M144.8,261.6c-0.2,4-0.2,8-0.6,12c-0.4,3.9,1.1,3.9,3.8,2.2c12.1-7.3,24.2-14.6,36.5-21.7 c33.6-19.3,67.2-38.7,102.4-55c2.9-1.3,3.3-2.6,2-5.3c-22.9-50.9-52.4-96.9-97.2-131.5c-2.4-1.8-4.7-3.7-7.1-5.6 c-2-1.5-3.3-1.7-4.2,1.3c-4.8,16.4-8.7,33.1-12.5,49.8c-4.9,21.6-9,43.3-12.7,65.1C150.4,202.3,145.7,231.7,144.8,261.6z"/> <path class="st4" d="M288.2,476.8c32.5,0.8,60.7-21.7,67.3-56.5c7.7-40.5-19.3-82.7-59.3-92.7c-34.2-8.5-68.8,10.2-80.9,43.7 c-16,44.6,13.4,95.7,60,104.4C279.8,476.5,284.2,476.9,288.2,476.8z"/> <path class="st5" d="M247.4,399.9c0.5,22.6,17.4,38.8,39.9,38.2c21.5-0.6,36.8-18,36.2-41.3c-0.5-20.8-18.1-36.8-39.7-36.2 C263.7,361.1,247,379.2,247.4,399.9z"/> <path class="st6" d="M283.1,384.8c0.1,6.8,5.3,12.2,11.9,12.1c6.9,0,12.5-6,12.3-13.1c-0.2-6.2-6.1-11.4-12.9-11.4 C288.7,372.4,283.1,378.5,283.1,384.8z"/> <path class="st7" d="M69.7,676.6c10-5.6,20.1-11.2,30.1-16.8c30.3-17,61.7-31.5,93.6-45c28.4-12.1,57.3-22.7,87.1-30.9 c26-7.2,52.2-13.2,78.7-18.5c1.3-0.3,2.6-0.5,3.9-0.9c2-0.5,3-1.8,3-4c0-2.3-1.6-2.7-3.3-3c-7.6-1.7-15,0.1-22.2,1.8 c-19.1,4.4-38,9.4-57,14.1c-21.3,5.3-42,12.5-62.5,20.1c-37.8,14-74.4,30.8-109.9,50c-13.3,7.2-26.5,14.6-39,23.3 C68.4,669.5,66.9,672.2,69.7,676.6z"/> </g> </g> <g id="Ebene_2"> </g> </svg>