<?xml version="1.0" encoding="utf-8"?>
<!-- Generator: Adobe Illustrator 24.0.0, SVG Export Plug-In . SVG Version: 6.00 Build 0)  -->
<svg version="1.1" id="Capa_1" xmlns="http://www.w3.org/2000/svg" xmlns:xlink="http://www.w3.org/1999/xlink" x="0px" y="0px"
	 viewBox="0 0 283.46 283.46" style="enable-background:new 0 0 283.46 283.46;" xml:space="preserve">
<style type="text/css">
	.st0{fill:#050504;}
	.st1{fill:#BBD28C;stroke:#276839;stroke-width:3.7942;stroke-miterlimit:10;}
	.st2{fill:#276839;stroke:#ABC872;stroke-width:2.137;stroke-miterlimit:10;}
	.st3{fill:#437C53;stroke:#ABC872;stroke-width:1.8971;stroke-miterlimit:10;}
	.st4{fill:#276839;stroke:#CCDBD0;stroke-width:4.3304;stroke-miterlimit:10;}
	.st5{fill:#050504;stroke:#040504;stroke-width:1.4591;stroke-miterlimit:10;}
	.st6{fill:#EBF2DE;stroke:#E4EDD2;stroke-width:0.415;stroke-miterlimit:10;}
	.st7{fill:#040504;}
	.st8{fill:#276839;stroke:#276839;stroke-width:1.1974;stroke-miterlimit:10;}
	.st9{fill:#39754A;stroke:#276839;stroke-width:0.9613;stroke-miterlimit:10;}
</style>
<g>
	<g>
		<path class="st0" d="M126.57,145.19c-0.85,0.67-0.18,0.29-0.4,0.39l0,0l-0.01-0.01l-0.03-0.03l-0.07-0.06l-0.15-0.12
			c-0.1-0.08-0.2-0.15-0.31-0.22c-0.21-0.14-0.43-0.26-0.66-0.37c-0.45-0.22-0.93-0.38-1.41-0.48c-0.96-0.21-1.95-0.19-2.89,0.03
			c-1.89,0.44-3.59,1.56-5.09,2.89c-1.52,1.32-2.87,2.87-4.11,4.52c-1.26,1.63-2.41,3.37-3.49,5.15c-1.07,1.78-2.1,3.75-3.13,5.63
			c-1.05,1.89-2.24,3.69-3.6,5.37c-1.35,1.69-2.8,3.32-4.36,4.86c-0.77,0.77-1.62,1.51-2.42,2.23c-0.83,0.66-1.55,1.42-2.44,2.19
			l-0.5-0.27c0.12-1.13,0.38-2.28,0.8-3.38c0.41-1.06,0.82-2.07,1.27-3.06c0.9-1.98,1.89-3.9,2.95-5.77
			c1.06-1.87,2.28-3.63,3.63-5.31c1.37-1.69,2.71-3.31,4.06-5.08c2.73-3.49,5.77-6.86,9.66-9.36c1.95-1.2,4.16-2.2,6.55-2.33
			c1.19-0.07,2.4,0.11,3.49,0.56c0.54,0.23,1.05,0.52,1.51,0.87c0.23,0.17,0.45,0.36,0.65,0.56c0.1,0.1,0.2,0.2,0.3,0.31l0.14,0.17
			l0.07,0.09l0.03,0.05l0.02,0.03l0.01,0.02c-0.21,0.11,0.47-0.26-0.38,0.42L126.57,145.19z"/>
	</g>
	<g>
		<path class="st0" d="M158.78,136.15c2.67-5.75,5.53-11.35,8.42-16.92l8.68-16.68c2.87-5.56,5.76-11.1,8.44-16.73
			c1.34-2.82,2.66-5.64,3.83-8.53c1.2-2.88,2.27-5.8,3.03-8.88c0.09,3.18-0.53,6.36-1.26,9.46c-0.78,3.09-1.75,6.13-2.88,9.1
			c-2.23,5.95-4.88,11.72-7.81,17.33c-1.49,2.79-2.99,5.57-4.57,8.31c-1.61,2.72-3.2,5.45-4.92,8.09
			C166.37,126.03,162.79,131.24,158.78,136.15z"/>
	</g>
	<path class="st1" d="M117.19,57.62c-1.47,30.93,5.46,53.25,5.46,78.53s-22.77,87.2-2.73,99.95c20.03,12.75,59.19,10.24,61.01-59.08
		c1.82-69.32-20.08-128.51-34.63-143.08C131.76,19.38,119.02,19.38,117.19,57.62z"/>
	<path class="st2" d="M126.41,28.03c0,0,33.25,93.73,22.45,130.69s-12.11,65.12-10.86,76.1c1.25,10.98,21.61-3.06,21.61-3.06
		s19.51-77.44,5.56-124.07c-13.95-46.64-18.81-50.33-18.98-66.43c-0.08-7.05-4.88-12.29-4.88-12.29c-6.82-1.71-14.89-0.64,0,0"/>
	<path class="st3" d="M121.86,43.37c0,0,19.06,96.92,15.42,113.62c-3.64,16.71,11.02,66.36-5.16,79.92
		c-7.51,6.29-19.68-13.76-16.75-34s11.66-67.34,8.56-100.17C120.84,69.92,121.86,43.37,121.86,43.37z"/>
	<g>
		<path class="st0" d="M116.71,239.43c-3.61,1.19-7.23,2.31-10.85,3.45l0.35-1.37c3.66,3.09,7.26,6.26,10.89,9.39l5.46,4.68
			c1.84,1.53,3.67,3.08,5.39,4.76l1.36,1.33l-1.2,1.37c-0.89,1.02-1.81,2.01-2.76,2.99c-0.92,0.99-1.9,1.94-2.87,2.9
			c-1.97,1.88-3.98,3.74-6.21,5.4l-0.29-0.24c1.26-2.48,2.75-4.77,4.27-7.04c0.78-1.11,1.55-2.24,2.37-3.32
			c0.8-1.1,1.63-2.17,2.48-3.23l0.16,2.7c-1.78-1.6-3.44-3.33-5.09-5.07l-5.01-5.16c-3.35-3.43-6.74-6.81-10.05-10.28l-1.04-1.09
			l1.39-0.28c3.72-0.76,7.43-1.54,11.16-2.25L116.71,239.43z"/>
	</g>
	<g>
		<path class="st0" d="M158.97,242.09c0.18,2.3,0.33,4.61,0.47,6.91l0.42,6.91c0.13,2.3,0.25,4.61,0.34,6.91
			c0.1,2.3,0.22,4.61,0.39,6.91l-3.5-0.61c0.22-0.57,0.37-0.74,0.58-1.05c0.21-0.26,0.43-0.51,0.68-0.7
			c0.49-0.41,1.04-0.7,1.58-0.87c0.27-0.11,0.55-0.18,0.8-0.21c0.26-0.04,0.53-0.1,0.79-0.12c0.48-0.01,1.02-0.03,1.46,0.05
			c0.95,0.09,1.78,0.37,2.6,0.63c0.77,0.34,1.56,0.65,2.26,1.06c0.72,0.38,1.41,0.82,2.05,1.28c0.67,0.44,1.29,0.94,1.89,1.45
			c1.21,1.02,2.31,2.16,3.32,3.37l-0.22,0.31c-1.51-0.5-2.89-1.15-4.31-1.69l-1.03-0.44c-0.35-0.13-0.7-0.25-1.04-0.39l-1.02-0.41
			c-0.34-0.11-0.69-0.21-1.02-0.34c-1.34-0.48-2.7-0.81-3.87-0.92c-0.31-0.06-0.55,0.01-0.82-0.03c-0.22,0.03-0.49,0.02-0.65,0.09
			c-0.09,0.02-0.2,0.03-0.25,0.07c-0.07,0.03-0.15,0.05-0.2,0.08c-0.07,0.02-0.1,0.06-0.15,0.08c-0.02-0.01-0.1,0.13-0.02-0.08
			l-3.5-0.61c0.17-2.3,0.29-4.61,0.39-6.91c0.1-2.3,0.21-4.61,0.34-6.91l0.42-6.91c0.14-2.3,0.29-4.61,0.47-6.91H158.97z"/>
	</g>
	<g>
		<ellipse class="st4" cx="131.52" cy="109.58" rx="8.83" ry="1.14"/>
		<ellipse class="st4" cx="159.31" cy="107.22" rx="8.83" ry="1.14"/>
		<g>
			<circle class="st5" cx="131.52" cy="102.1" r="7.49"/>
			<circle class="st6" cx="130.67" cy="97.61" r="2.13"/>
		</g>
		<g>
			<circle class="st5" cx="159.31" cy="99.74" r="7.49"/>
			<circle class="st6" cx="159.62" cy="95.19" r="2.13"/>
		</g>
		<g>
			<path class="st7" d="M119.37,92.2c1.01-1.71,2.22-3.29,3.53-4.81c1.33-1.49,2.78-2.89,4.41-4.11c1.62-1.2,3.4-2.4,5.49-2.82
				c2.05-0.44,4.31-0.26,6.11,0.75l-0.05,0.18c-1.02,0.03-1.96,0.09-2.89,0.22c-0.92,0.15-1.81,0.38-2.68,0.67
				c-0.87,0.28-1.73,0.62-2.59,0.97c-0.87,0.34-1.72,0.77-2.53,1.27c-1.63,0.99-3.16,2.2-4.59,3.52c-1.45,1.3-2.8,2.73-4.05,4.25
				L119.37,92.2z"/>
		</g>
		<g>
			<path class="st7" d="M173.16,90.21c-0.85-1.59-2.05-2.98-3.45-4.02c-1.39-1.07-2.97-1.81-4.61-2.27l-1.26-0.24
				c-0.41-0.09-0.86-0.06-1.28-0.1c-0.84-0.1-1.7-0.06-2.56-0.18c-0.43-0.09-0.87-0.04-1.3-0.08c-0.44-0.04-0.88-0.06-1.33-0.12
				c-0.9-0.02-1.81-0.07-2.78-0.26l-0.05-0.24c0.83-0.5,1.72-0.87,2.63-1.2c0.93-0.23,1.87-0.45,2.84-0.53
				c1.95-0.16,3.9,0.39,5.71,1.1c1.82,0.73,3.48,1.82,4.81,3.21c1.31,1.4,2.35,3.03,2.86,4.84L173.16,90.21z"/>
		</g>
		<g>
			<path class="st7" d="M140.21,115.3c1.34,1.45,2.62,2.89,3.98,4.21c0.69,0.64,1.36,1.29,2.1,1.82c0.72,0.54,1.47,1.01,2.22,1.21
				c0.75,0.23,1.41,0.18,2.03-0.21c0.63-0.37,1.19-1.05,1.66-1.82c0.95-1.55,1.6-3.39,2.36-5.21c0.01,1.98-0.23,3.97-1.05,5.89
				c-0.39,0.96-1.02,1.91-1.99,2.64c-0.48,0.37-1.1,0.59-1.73,0.7c-0.63,0.06-1.26,0.01-1.81-0.17c-2.23-0.75-3.66-2.31-4.9-3.87
				C141.87,118.9,140.89,117.16,140.21,115.3z"/>
		</g>
	</g>
</g>
<path class="st8" d="M121.16,10c16.48-6.09,14.71,14.97,14.71,14.97l-13.18,4.99L121.16,10z"/>
<path class="st9" d="M122.28,10.21c13.23-4.89,11.81,12.02,11.81,12.02l-10.58,4.01L122.28,10.21z"/>
</svg>
