<?xml version='1.0' encoding='utf-8'?>
<svg xmlns="http://www.w3.org/2000/svg" viewBox="0 0 346.26 346.26"><defs><style>.cls-1{fill:none;}.cls-2{fill:#70a83b;stroke:#211915;stroke-miterlimit:10;stroke-width:4.94px;}.cls-3{fill:#dedc1c;opacity:0.42;}.cls-4{fill:#e6b54a;}.cls-5{fill:#383814;}.cls-6{fill:#4c372a;}.cls-7{fill:#ae5362;}.cls-8{fill:#d7d8dc;}.cls-9{fill:#fff;fill-opacity:0.61;opacity:0.49;}</style></defs><title>cucumber pepino fruit fruta food comida green verde kawaii cute lindo</title><g id="Capa_2" data-name="Capa 2"><g id="CUCUMBER"><g id="CUCUMBER-2" data-name="CUCUMBER"><g id="RECTANGLE"><rect id="rectangle-2" data-name="rectangle" class="cls-1" width="346.26" height="346.26" transform="translate(346.26 346.26) rotate(-180)"/></g><path class="cls-2" d="M145.12,47.63c-27.54,52.89-35.3,165.84-19.82,218.24,16.41,55.56,40.24,60.49,54.2,60.75,23.75.46,46.37-22.91,34.2-86.37-11.1-57.87,2.46-125.58,13.1-162C241.3,28.6,174.18-8.19,145.12,47.63Z"/><path class="cls-3" d="M129.68,212.82c5.11,48.94,24.27,88.24,20,74.93-9.28-29.26-13.18-89.59-13.48-101.86-1.31-53.27,10.63-78.36,6.87-78.7C138.44,106.77,126,177.81,129.68,212.82Z"/><path class="cls-3" d="M160.46,234.89c4.77,49,23.65,88.4,19.52,75.06-9.09-29.33-13.67-89.71-12.78-101.95,3.82-52.71,7.66-59.6,3.9-60C166.44,147.58,157,199.85,160.46,234.89Z"/><path class="cls-3" d="M183.65,222.44c.6,23.91,22.64,84.69,19.63,71.06C196.8,264.24,190.9,258.07,189,223c-1.78-33,12.29-93,8.66-94.07C193.15,127.67,182.78,187.25,183.65,222.44Z"/><g id="face"><path class="cls-4" d="M184.76,116.38a6.9,6.9,0,0,1-7.67,3.79c-4.93-.75-6.28-3.77-6.42-5.74,0,0,0,0,0,0,4.85,2,7.2-1.53,7.2-1.53S178.82,117.53,184.76,116.38Z"/><path class="cls-5" d="M185.63,116.27a.82.82,0,0,0-.86-.8h-.09s0,0,0,0c-2.47.38-5.35-.41-5.86-2.68-.15-.7-1.12-1.2-1.62-.48a4.4,4.4,0,0,1-2.77,1.74c-1.36.25-3.32-1.24-4.36-.28-1.44,1.33,1.31,4.71,2.3,5.49,3.82,3,11.33,2.68,13.24-2.51A.89.89,0,0,0,185.63,116.27Zm-5,2.72c-3.49,1.28-6.79-.4-8.71-3.18l.67.08a6.67,6.67,0,0,0,2.81-.21,6.6,6.6,0,0,0,2.13-1.15A6.17,6.17,0,0,0,183,117.4,6.13,6.13,0,0,1,180.67,119Z"/><path class="cls-6" d="M160.54,81c7.17.69,12.27,7.59,11.6,15.72s-7.28,14.3-14.38,13.5c-7.46-.83-12.26-7.8-11.42-16.6C147.08,85.91,153.38,80.31,160.54,81Z"/><path class="cls-7" d="M158.65,108.87c-6.15-.41-10.32-5.84-9.9-12.88S154,83.8,159.89,84c6.26.22,10.81,6.15,10.28,13.38C169.67,104.37,164.75,109.27,158.65,108.87Z"/><path class="cls-8" d="M154.63,89.34C155.8,85.8,159,84,162.21,85A6.1,6.1,0,0,1,166,92.8c-1.1,3.62-4.59,5.62-7.88,4.52S153.47,92.85,154.63,89.34Z"/><path class="cls-8" d="M164.81,104.32a1.5,1.5,0,0,1-1.76,1.39c-.88-.09-1.48-.56-1.48-1.43s.61-1.43,1.62-1.44A1.53,1.53,0,0,1,164.81,104.32Z"/><path class="cls-6" d="M208.89,87.86c6.22,3.64,7.85,12.21,3.71,19.51s-12.82,10.29-18.92,6.58c-6.42-3.9-7.75-12.4-3.17-20.25C194.53,86.81,202.69,84.22,208.89,87.86Z"/><path class="cls-7" d="M195.07,113.06c-5.41-3-6.84-9.76-3.4-16.15s10.06-9.17,15.32-6.52c5.59,2.82,7.16,10.25,3.54,16.78C207,113.47,200.44,116,195.07,113.06Z"/><path class="cls-8" d="M198.23,92.8c2.38-2.86,6.08-3.35,8.78-1.16a6.19,6.19,0,0,1,.83,8.78,6.34,6.34,0,0,1-9.12,1.21C196.07,99.41,195.86,95.64,198.23,92.8Z"/><path class="cls-8" d="M202.44,111.2a1.52,1.52,0,0,1-2.21.56,1.44,1.44,0,0,1-.72-2,1.41,1.41,0,0,1,2.09-.66A1.53,1.53,0,0,1,202.44,111.2Z"/></g><path id="bright1" class="cls-9" d="M203.53,53.1c-2.91-1.92-17.45-3.85-15.12-9.07,2.66-6,17.28-2.32,22.94,3s7,12.27,6.13,14.69C215.24,68,213.2,59.5,203.53,53.1Z"/></g></g></g></svg>